<svg width="20" height="20" viewBox="0 0 20 20" fill="none" xmlns="http://www.w3.org/2000/svg">
<path d="M4.65606 17.1561L10 11.8121L15.344 17.1561L15.6975 17.5096L16.0511 17.1561L17.1561 16.0511L17.5096 15.6975L17.1561 15.344L11.8121 10L17.1561 4.65606L17.5096 4.30251L17.1561 3.94896L16.0511 2.84396L15.6975 2.4904L15.344 2.84396L10 8.1879L4.65606 2.84396L4.30251 2.4904L3.94896 2.84396L2.84396 3.94896L2.4904 4.30251L2.84396 4.65606L8.1879 10L2.84396 15.344L2.4904 15.6975L2.84396 16.0511L3.94896 17.1561L4.30251 17.5096L4.65606 17.1561Z" fill="#75808C" stroke="#75808C"/>
</svg>
